<mxfile host="app.diagrams.net" modified="2020-11-28T15:01:47.133Z" agent="5.0 (Macintosh; Intel Mac OS X 10_15_6) AppleWebKit/537.36 (KHTML, like Gecko) Chrome/78.0.3904.108 Safari/537.36" etag="h-693lSwo0NUdQDms5iK" version="13.10.4" type="github">
  <diagram id="Qm4bfZGJvL7qsJlXigNG" name="Page-1">
    <mxGraphModel dx="1875" dy="642" grid="1" gridSize="10" guides="1" tooltips="1" connect="1" arrows="1" fold="1" page="1" pageScale="1" pageWidth="827" pageHeight="1169" math="0" shadow="0">
      <root>
        <mxCell id="0" />
        <mxCell id="1" parent="0" />
        <mxCell id="dIFkov1yeBRp3g4S3j3i-23" value="" style="rounded=1;whiteSpace=wrap;html=1;" vertex="1" parent="1">
          <mxGeometry x="-660" y="130" width="280" height="190" as="geometry" />
        </mxCell>
        <mxCell id="dIFkov1yeBRp3g4S3j3i-24" value="zk" style="text;html=1;strokeColor=none;fillColor=none;align=center;verticalAlign=middle;whiteSpace=wrap;rounded=0;" vertex="1" parent="1">
          <mxGeometry x="-633" y="140" width="40" height="20" as="geometry" />
        </mxCell>
      </root>
    </mxGraphModel>
  </diagram>
</mxfile>
